HIERARCHY
ROOT Hips
{
	OFFSET 0.00000 0.00000 0.00000
	CHANNELS 6 Xposition Yposition Zposition Yrotation Zrotation Xrotation 
	JOINT Lumbar
	{
		OFFSET 0 0 0
		CHANNELS 3 Zrotation Xrotation Yrotation
		JOINT Neck
		{
			OFFSET 0.00 0.2701 0.00
			CHANNELS 3 Zrotation Xrotation Yrotation
			End Site
			{
				OFFSET 0.00 0.1379 0.00
			}
		}
		JOINT RightShoulder
		{
			OFFSET 0.0119 0.2289 0.1181
			CHANNELS 3 Zrotation Xrotation Yrotation
			JOINT RightElbow
			{
				OFFSET 0.00 -0.1475 0.00
				CHANNELS 2 Zrotation Yrotation
				JOINT RightWrist
				{
					OFFSET 0.00 -0.1605 0.00
					CHANNELS 2 Zrotation Xrotation
					End Site
					{
						OFFSET 0.0040 -0.1068 0.0006
					}
				}
			}
		}
		JOINT LeftShoulder
		{
			OFFSET 0.0119 0.2289 -0.1181
			CHANNELS 3 Zrotation Xrotation Yrotation
			JOINT LeftElbow
			{
				OFFSET 0.00 -0.1475 0.00
				CHANNELS 2 Zrotation Yrotation
				JOINT LeftWrist
				{
					OFFSET 0.00 -0.1605 0.00
					CHANNELS 2 Zrotation Xrotation
					End Site
					{
						OFFSET 0.0040 -0.1068 -0.0006
					}
				}
			}
		}
	}
	JOINT RightHip
	{
		OFFSET 0.0316 -0.0424 0.0458
		CHANNELS 3 Zrotation Xrotation Yrotation
		JOINT RightKnee
		{
			OFFSET 0.00 -0.2438 0.00
			CHANNELS 1 Zrotation
			JOINT RightAnkle
			{
				OFFSET 0.00 -0.2449 0.00
				CHANNELS 3 Zrotation Xrotation Yrotation
				End Site
				{
					OFFSET 0.1237 -0.0542 0.0051
				}
			}
		}
	}
	JOINT LeftHip
	{
		OFFSET 0.0316 -0.0424 -0.0458
		CHANNELS 3 Zrotation Xrotation Yrotation
		JOINT LeftKnee
		{
			OFFSET 0.00 -0.2438 0.00
			CHANNELS 1 Zrotation
			JOINT LeftAnkle
			{
				OFFSET 0.00 -0.2449 0.00
				CHANNELS 3 Zrotation Xrotation Yrotation
				End Site
				{
					OFFSET 0.1237 -0.0542 -0.0051
				}
			}
		}
	}
}
MOTION
Frames: 28
Frame Time: 0.02
0.03046 0.01942 1.04146 1066.14738 -31.00856 -0.53589 44.80666 0.15918 5.52488 -13.15561 2.66986 -0.83079 -23.30512 -7.14612 -2.71108 44.20165 74.92249 -7.65115 0.32326 -40.90313 3.56777 17.30157 40.11873 -75.47466 -6.27991 -1.1352 -1.28162 6.44178 27.12797 -1.26925 -27.35714 -37.21798 -20.54315 48.65804 5.71415 2.39407 -27.72538 -7.6743 3.59994 2.56895
0.04209 0.01859 1.04096 1066.16877 -29.93952 -0.23493 44.22678 -0.1069 5.04675 -13.2449 2.67692 -0.83079 -24.1358 -7.46148 -2.90638 43.76089 74.64855 -7.67667 0.47791 -39.4104 3.97341 17.23927 39.71993 -75.94125 -6.1343 -1.01146 0.95215 5.65808 22.73045 -8.40944 -26.36577 -32.20383 -17.96854 45.90516 5.18055 2.85299 -27.59381 -7.44349 3.60495 2.56161
0.05271 0.01721 1.04042 1066.32648 -28.5759 0.00773 43.24773 -0.36253 4.29637 -13.30469 2.69339 -0.83079 -24.76175 -7.77367 -3.25961 43.06614 74.44146 -7.68039 0.60288 -37.60115 4.22355 17.5702 39.13075 -75.51078 -6.15786 -1.10621 4.12031 5.00573 15.14453 -17.52091 -22.96785 -23.99175 -13.63276 42.85099 4.58414 3.04697 -27.36815 -7.2239 3.6358 2.57011
0.06374 0.01613 1.03993 1066.43359 -27.36176 0.25502 42.46102 -0.60816 3.63879 -13.38637 2.6999 -0.83079 -25.47515 -8.07407 -3.56765 42.49633 74.20911 -7.69531 0.73723 -35.94263 4.54962 17.70064 38.64128 -75.53095 -6.09458 -1.09458 6.82779 4.31104 9.20125 -25.56212 -20.77592 -17.50194 -10.24101 39.95558 4.04465 3.35416 -27.1759 -7.00374 3.65198 2.56984
0.07497 0.01485 1.03929 1066.49382 -26.07571 0.59717 41.62893 -0.9163 3.11308 -13.4364 2.72936 -0.83079 -26.22427 -8.43489 -3.76453 41.88185 73.94741 -7.70823 0.89086 -34.24914 4.85963 17.90999 38.09883 -75.40696 -6.06612 -1.10468 9.68952 3.53414 2.43829 -34.36595 -18.17269 -9.87206 -6.24595 36.95315 3.3852 3.70907 -27.0173 -6.76231 3.68069 2.57614
0.08554 0.01385 1.03897 1066.68558 -24.87478 0.72671 40.7973 -1.09187 2.24845 -13.54266 2.71452 -0.83079 -26.84613 -8.66657 -4.22868 41.30175 73.76919 -7.71593 0.99648 -32.55601 5.16449 18.05195 37.62287 -75.35737 -6.00648 -1.12475 12.45556 2.9641 -3.37746 -42.02917 -15.82908 -3.85067 -3.08361 34.11191 2.96235 3.89684 -26.76801 -6.56873 3.68902 2.57238
0.0946 0.01375 1.03952 1067.18329 -23.94468 0.28657 40.05183 -0.90164 0.50457 -13.8247 2.56425 -0.83079 -27.16161 -8.552 -5.40841 40.87917 73.7605 -7.751 0.97768 -30.93643 5.48423 17.93006 37.3467 -75.71271 -5.84025 -1.11634 14.67241 2.92082 -5.74917 -46.18209 -14.80744 -3.15845 -2.70667 31.73893 3.18784 3.66354 -26.29708 -6.5039 3.63948 2.53918
0.10302 0.01396 1.04041 1067.81235 -23.11785 -0.36589 39.32287 -0.57903 -1.56837 -14.16132 2.37103 -0.83079 -27.35541 -8.30539 -6.84801 40.50019 73.84136 -7.77548 0.91124 -29.33002 5.80457 17.72587 37.14818 -76.17091 -5.63495 -1.11198 16.76946 3.08445 -7.06369 -49.09194 -14.11826 -4.178 -3.21861 29.54957 3.6565 3.27204 -25.73784 -6.48721 3.56789 2.49504
0.11169 0.01403 1.04116 1068.39686 -22.26759 -0.92429 38.59426 -0.31807 -3.48582 -14.46397 2.20464 -0.83079 -27.6062 -8.11226 -8.15897 40.10209 73.91232 -7.77993 0.86565 -27.72125 6.12986 17.54883 36.93421 -76.59108 -5.43419 -1.1086 18.95822 3.16273 -8.89559 -52.49198 -13.25755 -4.34665 -3.28764 27.31064 4.02784 2.96735 -25.2163 -6.4492 3.50308 2.45439
0.12047 0.01406 1.04185 1068.92349 -21.30666 -1.47677 37.81798 -0.04918 -5.44229 -14.80485 2.00799 -0.83079 -27.84219 -7.94612 -9.52277 39.69357 73.85973 -7.88544 0.82209 -26.08513 6.42891 17.4268 36.633 -76.94867 -5.29189 -1.10092 21.02543 3.20938 -10.69123 -56.28616 -12.40067 -4.71055 -3.45928 24.91756 4.34415 2.59456 -24.70211 -6.40929 3.45204 2.42012
0.12889 0.01425 1.04275 1069.59854 -20.60599 -2.08828 37.15089 0.2329 -7.3865 -15.07879 1.86371 -0.83079 -28.08364 -7.69306 -10.8326 39.31859 74.07961 -7.78208 0.76379 -24.5144 6.78337 17.16776 36.53058 -77.46657 -5.02025 -1.1002 23.30131 3.36862 -12.25936 -58.92643 -11.64539 -5.11722 -3.65171 22.89366 4.83011 2.32472 -24.15231 -6.38451 3.36778 2.3703
0.13648 0.01489 1.0442 1070.66435 -20.58874 -2.83598 36.77672 0.53278 -9.26239 -15.16033 1.87734 -0.83079 -28.36306 -7.22708 -11.95923 39.04277 75.0756 -7.07096 0.67295 -23.11385 7.30252 16.53075 36.99128 -78.45749 -4.36647 -1.11829 26.20926 3.7944 -13.53168 -58.77741 -11.09957 -5.23125 -3.68939 21.84111 5.75593 2.41865 -23.53038 -6.391 3.18833 2.27555
0.14374 0.01568 1.04586 1071.87205 -20.83308 -3.63063 36.51487 0.83878 -11.10418 -15.17176 1.94454 -0.83079 -28.65479 -6.67947 -13.0159 38.79731 76.33421 -6.15609 0.56975 -21.7822 7.87555 15.7607 37.64386 -79.60108 -3.589 -1.14209 29.32042 4.32443 -14.58212 -57.48391 -10.65226 -5.34537 -3.72566 21.15525 6.8388 2.61539 -22.87464 -6.41076 2.97794 2.16642
0.15116 0.01637 1.04743 1073.0053 -20.96591 -4.38717 36.20639 1.1329 -12.93055 -15.21155 1.98537 -0.83079 -28.94597 -6.17226 -14.08506 38.52793 77.4419 -5.35699 0.47463 -20.42454 8.41743 15.06228 38.18808 -80.64166 -2.89061 -1.16177 32.31798 4.80214 -15.66906 -56.64186 -10.16804 -5.46845 -3.76737 20.30594 7.8296 2.73944 -22.23268 -6.42362 2.78711 2.06666
0.15852 0.01721 1.04901 1074.18455 -21.07161 -5.22254 35.87895 1.47 -14.90086 -15.26775 2.03341 -0.83079 -29.21012 -5.64521 -15.24658 38.30254 78.68461 -4.46083 0.36736 -19.04227 8.98908 14.31305 38.82524 -81.82367 -2.09644 -1.18805 35.4068 5.30849 -16.99093 -56.04253 -9.67017 -5.60509 -3.81674 19.45202 8.91555 2.96701 -21.59694 -6.44193 2.57143 1.95404
0.16593 0.01777 1.0506 1075.30093 -21.29392 -5.9014 35.61833 1.71738 -16.55672 -15.27277 2.07953 -0.83079 -29.53683 -5.14342 -16.19359 37.99232 79.70907 -3.71711 0.28319 -17.73063 9.5094 13.6404 39.31212 -82.75063 -1.47034 -1.20204 38.34879 5.77665 -17.78647 -54.68819 -9.20825 -5.69926 -3.84094 18.6891 9.83833 3.00604 -20.93802 -6.45131 2.40154 1.8656
0.17344 0.0175 1.05213 1076.20002 -21.78041 -6.14149 35.5089 1.71419 -17.36945 -15.15005 2.10918 -0.83079 -30.01823 -4.71837 -16.58302 37.43926 80.0503 -3.45714 0.26501 -16.57223 9.89205 13.20336 39.34838 -82.90419 -1.35904 -1.18002 40.8864 6.11781 -17.165 -51.47705 -8.9332 -5.60291 -3.77199 18.11558 10.26407 2.4883 -20.25175 -6.43173 2.36233 1.84538
0.18102 0.01693 1.05366 1077.03203 -22.37362 -6.22058 35.46418 1.62016 -17.86213 -14.97858 2.13508 -0.83079 -30.56482 -4.32468 -16.75534 36.79958 80.16517 -3.35538 0.27086 -15.48807 10.21721 12.85195 39.2248 -82.8056 -1.41646 -1.14638 43.25787 6.41533 -16.03137 -47.56193 -8.6745 -5.4662 -3.67709 17.61466 10.52087 1.7753 -19.53783 -6.40153 2.37505 1.8529
0.18864 0.0165 1.05518 1077.89986 -22.91339 -6.36893 35.39323 1.56783 -18.48855 -14.83154 2.16144 -0.83079 -31.0931 -3.92573 -17.01292 36.20044 80.39422 -3.17257 0.26652 -14.38511 10.55839 12.46465 39.16593 -82.83741 -1.38473 -1.11738 45.67561 6.72885 -15.14701 -44.00849 -8.32624 -5.39155 -3.60664 17.06168 10.85859 1.16586 -18.81922 -6.37802 2.36115 1.84605
0.19595 0.01608 1.05674 1078.74988 -23.48308 -6.53506 35.31159 1.51374 -19.16322 -14.67268 2.19423 -0.83079 -31.57722 -3.48568 -17.32079 35.59841 80.58574 -3.02071 0.25878 -13.21779 10.94728 12.05158 39.14512 -82.79023 -1.40562 -1.08778 48.23352 7.06143 -14.17821 -40.23558 -8.30442 -5.1458 -3.48685 16.60311 11.18283 0.51717 -18.17485 -6.3517 2.34232 1.83608
0.20393 0.01556 1.05823 1079.61964 -24.01254 -6.6259 35.2676 1.44204 -19.66205 -14.52751 2.2129 -0.83079 -32.16457 -3.14001 -17.47828 34.98018 80.797 -2.8453 0.26381 -12.20588 11.21847 11.7247 39.0073 -82.8678 -1.35322 -1.061 50.44518 7.3437 -13.27464 -36.7708 -7.63525 -5.23104 -3.45906 15.95909 11.495 -0.12234 -17.36644 -6.32281 2.36728 1.85196
0.21366 0.01481 1.05951 1080.55537 -24.40196 -6.54256 35.29923 1.34032 -19.75045 -14.43486 2.18582 -0.83079 -33.05593 -3.04593 -17.22973 34.35021 81.12691 -2.56186 0.30002 -11.56827 11.21491 11.51865 38.56208 -83.14767 -1.10745 -1.00443 51.84383 7.48764 -12.61226 -34.30849 -4.90763 -6.37315 -3.72925 14.79577 11.79694 -0.45425 -16.14359 -6.34626 2.29866 1.81151
0.22409 0.01397 1.06075 1081.51323 -24.74638 -6.38996 35.36874 1.22462 -19.67359 -14.35776 2.1458 -0.83079 -34.0422 -3.04644 -16.84542 33.70551 81.48134 -2.25141 0.34795 -11.09294 11.08974 11.40959 38.00883 -83.58928 -0.77584 -0.95681 52.87911 7.58411 -12.0475 -32.18949 -1.57147 -7.82593 -4.08585 13.44086 12.09547 -0.79935 -14.75336 -6.36232 2.29338 1.8094
0.23424 0.01317 1.06203 1082.46379 -25.11199 -6.27232 35.42792 1.11771 -19.6747 -14.27171 2.11653 -0.83079 -34.96224 -3.00493 -16.55297 33.05853 81.81769 -1.9568 0.38943 -10.56456 10.99381 11.32681 37.51836 -84.10222 -0.44801 -0.93387 54.01316 7.70796 -11.48005 -29.93381 1.30421 -9.04752 -4.3781 12.16307 12.40627 -1.31187 -13.4159 -6.33738 2.4129 1.88099
0.24418 0.01235 1.06318 1083.40147 -25.47854 -6.13373 35.45843 0.99752 -19.65277 -14.19073 2.06675 -0.83079 -35.98266 -2.96034 -16.12742 32.44267 82.17632 -1.6513 0.43657 -9.94346 10.99798 10.97223 36.96127 -84.03525 -0.26446 -0.79661 55.42371 7.80451 -10.71423 -27.57458 4.93192 -10.64277 -4.77522 10.9243 12.6647 -1.16108 -12.16549 -6.47664 1.95464 1.60727
0.25476 0.01158 1.0646 1084.37085 -25.83081 -6.02526 35.55921 0.90262 -19.64345 -14.10496 2.05649 -0.83079 -36.81493 -2.94426 -15.94736 31.76431 82.49635 -1.36158 0.4743 -9.56302 10.77531 11.17767 36.52358 -85.16733 0.22928 -0.89041 56.17171 7.94887 -10.397 -25.51757 7.16789 -11.54023 -4.9749 9.56498 13.03525 -2.31463 -10.70732 -6.30075 2.62785 2.01333
0.2668 0.01089 1.06677 1085.4322 -26.15473 -6.01031 35.82257 0.88378 -19.71244 -13.99016 2.16003 -0.83079 -37.109 -2.98391 -16.49879 30.87747 82.71216 -1.10876 0.48378 -9.72072 9.86954 13.15415 36.40602 -90.02199 1.67441 -1.70308 55.20106 8.22188 -11.25029 -24.25899 5.15314 -10.37577 -4.60477 7.8595 13.70111 -7.75909 -8.61033 -5.00393 7.18059 4.71635
0.27948 0.01028 1.06922 1086.52249 -26.46466 -6.03007 36.15842 0.89104 -19.80009 -13.87237 2.30353 -0.83079 -37.20823 -3.04894 -17.29864 29.93633 82.8876 -0.87468 0.48314 -10.1299 8.75428 15.64956 36.41953 -96.00647 3.41107 -2.7345 53.57374 8.54706 -12.56235 -23.29124 1.76377 -8.50566 -4.03223 6.05188 14.48263 -14.4035 -6.33332 -3.43144 12.74712 8.03325
